<svg width="24" height="24" viewBox="0 0 24 24" fill="none" xmlns="http://www.w3.org/2000/svg">
<path d="M18.6203 19.746C14.2065 20.9032 9.79353 20.9032 5.37978 19.746C4.82778 19.6012 4.37703 19.1797 4.20303 18.636C2.94828 14.712 2.94828 10.788 4.20303 6.86399C4.37703 6.32024 4.82703 5.89873 5.37978 5.75398C9.79353 4.59673 14.2065 4.59673 18.6203 5.75398C19.1723 5.89873 19.623 6.32024 19.797 6.86399C21.0518 10.788 21.0518 14.712 19.797 18.636C19.6223 19.1797 19.1723 19.6012 18.6203 19.746Z" stroke="#787D7D" stroke-width="2" stroke-linecap="round" stroke-linejoin="round"/>
<path d="M8.25 3.75V6.75" stroke="#787D7D" stroke-width="2" stroke-linecap="round" stroke-linejoin="round"/>
<path d="M15.75 3.75V6.75" stroke="#787D7D" stroke-width="2" stroke-linecap="round" stroke-linejoin="round"/>
<path d="M13.5 10.5H16.5" stroke="#787D7D" stroke-width="2" stroke-miterlimit="10" stroke-linecap="round"/>
<path d="M7.5 13.5H11.25" stroke="#787D7D" stroke-width="2" stroke-miterlimit="10" stroke-linecap="round"/>
<path d="M9.75 16.5H15" stroke="#787D7D" stroke-width="2" stroke-miterlimit="10" stroke-linecap="round"/>
</svg>
