<svg width="34" height="45" viewBox="0 0 34 45" fill="none" xmlns="http://www.w3.org/2000/svg">
<path d="M30.6605 16.6579C30.8384 15.8653 31.5355 15.3751 32.0708 15.4072C32.5928 15.5741 32.9531 16.2633 32.6404 17.0426C32.4573 17.8349 31.7602 18.3251 31.2301 18.2933C30.7026 18.1313 30.4774 17.4502 30.6605 16.6579ZM33.1302 20.0085C33.5252 20.0322 33.9572 19.5261 33.997 18.8608C34.0369 18.1956 33.6685 17.6415 33.2735 17.6178C32.8733 17.5938 32.4414 18.0999 32.4015 18.7652C32.3616 19.4304 32.73 19.9846 33.1302 20.0085ZM29.1631 17.1002C29.8284 17.1401 30.4062 16.3767 30.47 15.3112C30.5339 14.2458 30.0515 13.4188 29.3862 13.3789C28.721 13.3391 28.1432 14.1025 28.0793 15.1679C28.0154 16.2333 28.4979 17.0603 29.1631 17.1002ZM24.0102 18.3978C22.5498 18.3102 19.8652 18.5457 19.6816 21.6068C19.4103 26.1336 24.8703 26.3253 24.5671 31.3823C24.3278 35.3737 20.0395 35.6487 19.9113 40.0484C19.8976 42.4522 20.7005 44.6336 24.5621 44.8651C27.223 45.0246 28.97 42.5944 29.1055 40.3336C29.4804 34.0813 33.7188 32.4629 33.9504 26.3377C34.0605 20.0643 26.6712 18.5573 24.0102 18.3978ZM21.3153 16.6297C22.5184 16.5714 23.2793 15.0158 23.1261 13.1341C22.9648 11.3875 21.844 9.98502 20.6325 10.1836C19.416 10.3767 18.6632 11.7972 18.8297 13.5441C18.9829 15.4258 20.1066 16.6928 21.3153 16.6297ZM25.8687 16.3706C26.6771 16.2835 27.406 15.2631 27.3428 14.0545C27.2793 12.851 26.5399 11.873 25.7395 11.8251C24.8015 11.8992 24.0723 12.9248 24.1277 14.2634C24.186 15.4665 24.9303 16.45 25.8687 16.3706Z" fill="white"/>
<path d="M3.14223 7.35835C2.89337 6.5851 2.15487 6.15991 1.62465 6.24028C1.11986 6.45371 0.823365 7.17271 1.20528 7.92052C1.45929 8.69299 2.1978 9.11818 2.72287 9.03859C3.23358 8.82953 3.39624 8.13082 3.14223 7.35835ZM0.985677 10.9186C0.594446 10.9779 0.118479 10.5129 0.0186008 9.85399C-0.0812769 9.19508 0.235511 8.60992 0.626741 8.55062C1.02312 8.49054 1.49909 8.95553 1.59896 9.61444C1.69884 10.2734 1.38206 10.8585 0.985677 10.9186ZM4.67349 7.66338C4.01458 7.76326 3.37012 7.05524 3.21016 5.99995C3.0502 4.94466 3.45589 4.07746 4.1148 3.97758C4.77371 3.8777 5.41817 4.58572 5.57813 5.64101C5.73809 6.69631 5.3324 7.5635 4.67349 7.66338ZM9.9226 8.48967C11.3691 8.2704 14.0641 8.26212 14.5237 11.2942C15.2033 15.7779 9.78301 16.4625 10.5422 21.4713C11.1415 25.4248 15.4371 25.3108 15.9626 29.681C16.1936 32.0736 15.5913 34.3187 11.7665 34.8985C9.13089 35.298 7.17131 33.0357 6.83188 30.7964C5.89318 24.6037 1.52573 23.3752 0.741166 17.296C0.0642274 11.0583 7.28694 8.88918 9.9226 8.48967ZM12.4466 6.48514C11.2431 6.53591 10.3447 5.05542 10.3271 3.16758C10.3298 1.41358 11.3191 -0.0844957 12.5437 0.00372148C13.7726 0.0860085 14.6508 1.43265 14.643 3.18743C14.6606 5.07528 13.656 6.43873 12.4466 6.48514ZM7.88847 6.63892C7.07543 6.62524 6.25733 5.67498 6.21093 4.46556C6.1653 3.26128 6.81324 2.22045 7.60599 2.10028C8.54695 2.0893 9.36582 3.04472 9.43173 4.38283C9.48251 5.58633 8.83021 6.63309 7.88847 6.63892Z" fill="white"/>
</svg>
