<svg width="186" height="88" viewBox="0 0 186 88" fill="none" xmlns="http://www.w3.org/2000/svg">
<path fill-rule="evenodd" clip-rule="evenodd" d="M185.307 0.603566C185.222 0.950262 185.05 1.29696 184.96 1.56094C184.182 5.63505 183.746 9.79715 182.621 13.7041C180.275 20.99 177.674 28.1861 174.988 35.2977C172.732 41.3693 170.478 47.4409 167.703 53.2555C164.317 60.3689 158.335 65.5729 152.784 70.8595C149.66 73.8091 146.102 76.5017 142.285 78.4094C131.495 83.916 120.11 87.1278 108.018 87.1278C106.214 87.1278 104.395 87.0557 102.559 86.9096C93.8019 86.1264 85.0395 85.9522 76.4548 83.96C62.9249 80.838 50.6076 75.3701 40.3739 65.5729C34.385 59.9307 28.0565 54.5543 21.5485 49.5228C15.22 44.6656 10.4454 38.858 7.32343 31.5721C3.33379 22.4612 1.51584 12.9209 0.820688 3.0322C0.820688 2.25433 0.648221 1.47119 0.473995 0.693322C0.384237 0.693322 0.210012 0.777796 0.0375445 0.777796C0.0375445 1.47119 -0.0469306 2.08186 0.0375445 2.6855C0.820688 11.3599 2.11948 19.9499 5.15878 28.1861C8.45327 37.1227 13.5675 44.5828 21.3743 50.3904C27.5356 54.9907 33.6072 60.1049 39.1596 65.4831C49.9142 75.9808 62.9249 81.8799 77.3225 84.8277C84.4359 86.2162 91.8045 86.5629 99.0903 87.3408C102.024 87.6047 104.944 87.7543 107.86 87.7543C111.668 87.7543 115.473 87.4991 119.303 86.9096C139.252 83.8703 154.518 73.5521 166.05 57.3296C169.785 52.0412 172.039 46.0541 174.204 39.9825C177.327 30.9614 180.622 21.9403 183.571 12.8365C184.786 8.9313 185.222 4.76743 186 0.777797C185.828 0.777797 185.571 0.69332 185.307 0.603566Z" fill="#46A192"/>
<path fill-rule="evenodd" clip-rule="evenodd" d="M172.907 0.431086C172.732 0.867535 172.56 1.29694 172.47 1.73515C171.082 7.19605 169.785 12.7467 168.396 18.2973C166.571 25.7574 164.406 33.1331 160.327 39.8083C158.856 42.2369 157.814 44.8398 156.51 47.3581C155.039 50.3904 153.824 53.6867 151.916 56.6362C145.498 66.3507 136.477 72.5948 125.202 75.7168C119.398 77.4168 113.477 78.5977 107.443 78.5977C106.082 78.5977 104.717 78.5379 103.344 78.4094C97.6191 77.8885 91.8942 77.3693 86.1693 76.9311C81.1396 76.5844 76.1081 76.155 71.3354 74.33C60.7532 70.4301 51.9063 63.8376 44.1893 55.7686C38.028 49.4401 31.6994 43.2788 24.3238 38.2473C19.3821 34.7786 14.8733 30.4405 13.2208 24.3689C11.6598 18.2973 10.7094 11.9688 9.4951 5.8075C9.23113 4.07402 9.05689 2.33879 8.88442 0.603551H8.36351C8.36351 1.12447 8.28079 1.73515 8.36351 2.25431C9.14841 7.02181 9.8418 11.7964 10.6197 16.5639C11.6598 22.551 12.9638 28.5328 17.5571 33.0433C20.0772 35.472 22.5886 37.9903 25.3639 39.898C31.4355 43.9721 36.6394 48.8294 41.5882 54.2076C46.7006 59.848 52.4255 64.788 58.8438 68.8691C67.0553 74.1962 75.7544 77.5488 85.5991 77.5488C85.8473 77.5488 86.0954 77.547 86.3436 77.5418C86.597 77.5347 86.8486 77.5294 87.1003 77.5294C89.6081 77.5294 92.0579 77.9131 94.5798 78.1454C98.9161 78.4939 103.344 79.277 107.68 79.277C107.847 79.2788 108.013 79.2805 108.18 79.2805C115.549 79.2805 122.755 77.4872 129.712 75.0234C140.724 71.1235 148.967 63.8376 154.518 53.7764C158.161 47.2684 161.11 40.3292 164.406 33.5642C164.663 32.9606 164.927 32.3499 165.1 31.7463C167.009 24.8898 169 18.0404 170.825 11.1857C171.775 7.71697 172.643 4.16378 173.51 0.603551C173.253 0.603551 173.079 0.52084 172.907 0.431086Z" fill="#46A192"/>
<path fill-rule="evenodd" clip-rule="evenodd" d="M14.0057 0.520874C13.5675 0.867569 13.395 1.12451 13.395 1.38849C13.9142 4.76745 14.2626 8.15345 14.956 11.4497C16.781 20.6433 20.4239 29.0537 27.5356 35.5617C38.8111 45.9696 51.2112 54.5543 65.2638 60.7983C74.1107 64.7053 83.3043 67.3908 93.0188 68.0015C94.4249 68.0754 95.8258 68.1124 97.2249 68.1124C105.662 68.1124 113.952 66.7608 121.988 64.0119C137.948 58.544 149.66 48.2258 155.295 32.1757C158.856 22.2043 161.193 11.7964 164.06 1.56096C164.142 1.29698 164.142 0.950281 164.142 0.693339C163.97 0.603586 163.885 0.603586 163.713 0.603586C163.539 1.04003 163.366 1.4712 163.275 1.90765L156.51 26.6251C151.999 43.1943 141.681 55.0735 126.069 61.666C116.932 65.4726 107.522 67.4736 97.9464 67.4736C92.2497 67.4736 86.4949 66.7661 80.7014 65.3089C67.344 62.0127 55.375 55.8584 44.1893 47.9618C39.068 44.3189 34.1281 40.2465 29.2708 36.1654C19.8132 28.0119 16.1703 17.0831 14.6093 5.2039C14.4351 3.64289 14.2626 2.08188 14.0057 0.520874Z" fill="#46A192"/>
<path fill-rule="evenodd" clip-rule="evenodd" d="M25.7106 0.431084C25.6279 1.47117 25.8848 2.42854 26.1488 3.37887C27.5356 8.50011 28.8344 13.7041 30.3109 18.8183C31.0888 21.3366 31.7822 23.9395 33.3432 25.9299C40.0254 34.6941 47.9149 41.98 58.1504 46.4905C67.6924 50.8269 77.7536 53.4297 87.8148 55.8583C94.8438 57.5021 101.783 59.3271 109.069 59.5013C109.366 59.5101 109.66 59.5136 109.954 59.5136C115.566 59.5136 120.487 57.928 124.938 54.3801C127.109 52.7363 129.274 51.0838 131.446 49.3503C138.732 43.541 145.06 37.033 148.184 28.0118C150.092 22.551 151.999 17.083 153.734 11.5324C154.775 7.97919 155.385 4.24649 156.163 0.693305C155.989 0.603552 155.816 0.520838 155.642 0.520838C155.385 1.04 155.121 1.6454 155.039 2.25431C153.478 11.5324 150.528 20.3793 147.059 29.0537C144.977 34.1749 142.028 38.7682 138.038 42.4111C134.131 46.0541 129.885 49.2659 125.895 52.7363C120.966 57.0938 115.436 58.9205 109.511 58.9205C107.302 58.9205 105.04 58.6671 102.733 58.1972C93.8864 56.3793 85.0395 54.3801 76.1926 52.1256C60.0581 48.0515 45.6605 40.8501 35.1682 27.3185C33.088 24.7156 31.6097 21.9403 30.8318 18.644C29.5278 12.9209 27.8823 7.2858 26.4058 1.6454C26.2315 1.21423 25.9746 0.867533 25.7106 0.431084Z" fill="#46A192"/>
<path fill-rule="evenodd" clip-rule="evenodd" d="M36.467 0.431084C36.3825 0.520838 36.21 0.520838 36.0358 0.520838C36.1203 1.04 36.1203 1.56092 36.2927 2.08185C38.7214 8.67434 41.15 15.2651 43.6684 21.8576C45.0569 25.4107 47.5683 28.1861 50.6076 30.532C56.16 35.0408 62.5782 37.9903 69.169 40.5932C78.3643 44.2361 87.5579 48.0515 97.0084 51.258C100.729 52.4847 104.467 53.1693 108.191 53.1693C112.89 53.1693 117.567 52.0799 122.162 49.6126C131.009 44.8398 137.171 37.5539 141.681 28.707C146.017 20.2068 148.184 11.0115 150.009 1.6454C150.092 1.38846 149.917 1.04 149.917 0.693306C149.398 1.21423 149.224 1.73515 149.141 2.33879C147.406 8.75705 146.017 15.2651 143.937 21.5936C140.641 30.9614 135.437 39.2874 127.366 45.3589C122.252 49.1761 116.784 51.9514 110.283 52.2981C109.627 52.3316 108.974 52.3492 108.321 52.3492C103.793 52.3492 99.3455 51.5484 95.1007 49.961C85.3862 46.4008 75.8442 42.5009 66.3039 38.5113C62.14 36.776 58.1504 34.6043 54.2505 32.2655C49.3035 29.3177 45.4863 25.1538 43.4062 19.6032C42.2816 16.4794 40.8931 13.5316 39.7632 10.4078C38.6387 7.11157 37.5968 3.81708 36.467 0.431084Z" fill="#46A192"/>
<path fill-rule="evenodd" clip-rule="evenodd" d="M44.272 0.520873C44.0995 0.603587 43.8426 0.603587 43.6684 0.69334C44.0995 2.25435 44.4462 3.89983 44.8827 5.55059C46.7006 13.6143 50.1711 20.9002 57.1103 25.9299C71.3354 36.3396 87.2939 41.8075 104.988 41.8075C111.754 41.8075 117.652 39.5514 122.509 34.9511C125.374 32.2655 128.151 29.4004 130.488 26.3682C136.387 18.908 142.112 11.2755 143.499 1.47121C143.589 1.21426 143.499 0.867568 143.416 0.520873C142.806 1.38849 142.723 2.25435 142.374 3.12197C141.417 6.07152 140.813 9.27801 139.335 11.9689C134.916 19.9499 129.712 27.3185 122.945 33.654C119.13 37.2072 114.794 40.155 109.416 40.6759C107.115 40.8942 104.794 41.0244 102.475 41.0244C100.153 41.0244 97.8338 40.8942 95.5372 40.5932C84.6928 39.2874 74.4574 35.5617 64.8326 30.3578C55.375 25.2366 48.4359 17.868 46.0072 7.02185C45.5778 4.85721 44.8827 2.68552 44.272 0.520873Z" fill="#46A192"/>
<path fill-rule="evenodd" clip-rule="evenodd" d="M52.4255 0.431084C52.253 0.520837 52.1686 0.603551 51.9961 0.603551C52.253 1.21423 52.3428 1.90762 52.6895 2.51126C55.2008 7.02182 57.6295 11.5324 60.2323 16.0429C62.6609 20.2966 66.1296 23.5013 70.4677 25.7574C78.5368 29.7471 86.8645 33.1331 95.7941 34.4301C97.3868 34.6624 98.9689 34.7926 100.53 34.7926C105.428 34.7926 110.104 33.515 114.183 30.0938C116.355 28.2758 118.437 26.4508 120.427 24.3689C127.109 17.6937 131.356 9.27798 136.13 1.21423C136.213 1.04 136.13 0.693306 136.213 0.431084C133.438 4.42072 131.099 8.41036 128.67 12.4897C125.112 18.2146 120.948 23.3288 115.917 27.8394C111.13 32.1053 105.795 34.0869 99.9527 34.0869C98.0714 34.0869 96.1355 33.881 94.1504 33.4798C86.516 31.9188 79.2302 29.1434 72.2012 25.8472C67.9546 23.7653 64.1392 20.9899 61.7106 16.9106C58.5886 11.7964 55.896 6.50265 52.9464 1.38846C52.7722 1.04 52.5997 0.777779 52.4255 0.431084Z" fill="#46A192"/>
<path fill-rule="evenodd" clip-rule="evenodd" d="M59.1922 0.431085C58.8438 0.950248 58.9353 1.29694 59.018 1.6454C61.7933 10.7545 66.9145 17.7782 76.3651 20.3793C83.394 22.3785 90.5902 23.5013 97.7933 24.8071C99.2382 25.0676 100.653 25.196 102.035 25.196C107.532 25.196 112.522 23.1722 116.958 19.4289C122.773 14.4819 126.588 8.06366 129.448 1.12447C129.538 0.950246 129.448 0.777779 129.365 0.603551C129.191 0.603551 129.017 0.603551 129.017 0.693305C128.67 1.21423 128.406 1.73515 128.234 2.25431C125.548 8.23613 122.162 13.7041 117.305 18.1249C113.273 21.7713 108.685 24.3055 103.36 24.3055C102.73 24.3055 102.087 24.2703 101.436 24.1964C94.3228 23.5013 87.2112 22.2043 80.1822 20.8175C69.5156 18.7355 62.8352 11.9688 59.8029 1.6454C59.6287 1.21423 59.3647 0.867533 59.1922 0.431085Z" fill="#46A192"/>
<path fill-rule="evenodd" clip-rule="evenodd" d="M68.9965 0.174195C68.9965 0.9503 68.9067 1.21428 68.9067 1.47122C70.2108 6.76493 72.8119 11.36 77.2327 14.6544C84.2212 19.9358 92.1688 21.6447 100.467 21.6447C101.848 21.6447 103.242 21.5972 104.641 21.5109C109.069 21.2469 112.712 18.9925 115.313 15.3496C118.173 11.36 120.17 7.11162 121.212 2.4286C121.384 1.81792 121.384 1.12453 121.469 0.520892C120.774 1.21428 120.601 1.90767 120.427 2.51131C119.387 7.1961 117.305 11.4497 114.445 15.2651C112.448 17.9507 109.845 19.8584 106.376 20.4691C104.257 20.814 102.149 20.9812 100.06 20.9812C94.2806 20.9812 88.6332 19.7018 83.2216 17.3471C76.1081 14.225 71.4251 9.02109 69.6899 1.38851C69.6001 1.04005 69.4259 0.867586 68.9965 0.174195Z" fill="#46A192"/>
<path fill-rule="evenodd" clip-rule="evenodd" d="M114.099 0C113.579 0.603637 113.405 0.777865 113.315 0.950332C111.323 3.89988 109.498 6.93919 107.416 9.71451C105.598 12.1431 103.08 13.3574 99.958 13.3574C99.738 13.3627 99.518 13.3662 99.2998 13.3662C93.244 13.3662 87.8975 11.0679 82.8731 7.8068C80.272 6.07157 77.8434 3.98964 76.9758 0.777864C76.9758 0.69339 76.7118 0.603636 76.3651 0.520922C76.6291 3.12202 78.1003 4.85725 79.8356 6.32851C84.1719 10.0612 89.2016 12.5743 94.8438 13.7041C96.491 14.0332 98.2016 14.3307 99.8559 14.3307C102.119 14.3307 104.278 13.7728 106.03 11.9689C108.977 8.93136 111.233 5.20395 113.752 1.73524C114.009 1.47126 113.926 0.950332 114.099 0Z" fill="#46A192"/>
<path fill-rule="evenodd" clip-rule="evenodd" d="M85.1293 0.174195C85.1293 4.19903 90.6306 7.89125 96.037 7.89125C96.1021 7.89125 96.1672 7.89125 96.2305 7.88949C100.651 7.88949 104.469 4.51053 104.294 0.431137C102.934 4.36446 100.606 7.25417 96.4206 7.25417C96.081 7.25417 95.729 7.23481 95.3647 7.1961C91.0266 6.76493 87.2112 5.03145 85.1293 0.174195Z" fill="#46A192"/>
</svg>
