<svg width="24" height="32" viewBox="0 0 24 32" fill="none" xmlns="http://www.w3.org/2000/svg">
<path d="M12.0791 1.90137C11.7371 1.89868 11.3955 1.98229 11.0933 2.15332C9.15315 3.2469 7.01875 4.56077 4.79741 5.84034C4.79594 5.84131 4.79448 5.84229 4.79302 5.84327C3.70063 6.48321 2.81535 7.48831 2.66314 8.69971V8.70118C2.30281 11.6069 2.46151 14.5189 3.13774 17.4199C3.13916 17.4248 3.14062 17.4297 3.14214 17.4346C3.34398 18.2311 3.83053 18.9586 4.43413 19.5718C5.03773 20.185 5.7594 20.6843 6.55669 20.8975C6.56156 20.899 6.56644 20.9004 6.57134 20.9019C10.1843 21.7921 13.8158 21.7921 17.4288 20.9019C17.4337 20.9004 17.4385 20.899 17.4434 20.8975C18.2407 20.6843 18.9624 20.1852 19.566 19.5718C20.1695 18.9584 20.6566 18.2302 20.858 17.4331C20.859 17.4287 20.86 17.4243 20.8609 17.4199C21.5387 14.5143 21.6981 11.5983 21.3355 8.68799L21.334 8.68653C21.1819 7.48489 20.3081 6.4854 19.2261 5.84326C19.2247 5.84228 19.2232 5.84131 19.2217 5.84033C17.0497 4.57199 14.9633 3.26659 13.0635 2.1665C12.7636 1.9925 12.4212 1.90406 12.0791 1.90137ZM12 14.0581C12.6442 14.0569 13.2731 14.2511 13.8794 14.5049C14.2179 16.2535 14.2216 18.1008 13.8589 19.8413C12.6206 19.9535 11.3795 19.9535 10.1412 19.8413C9.77912 18.1037 9.7825 16.2597 10.1192 14.5137C10.7249 14.2568 11.3549 14.0593 12 14.0581Z" fill="#277568"/>
<circle cx="12" cy="30" r="2" fill="#277568"/>
</svg>
