<svg width="101" height="137" viewBox="0 0 101 137" fill="none" xmlns="http://www.w3.org/2000/svg">
<path fill-rule="evenodd" clip-rule="evenodd" d="M1.74251 66.8199C2.22561 66.6886 2.7485 66.6526 3.18581 66.6583C7.82295 66.7958 12.3329 66.8894 16.9241 66.9369C20.8138 67.116 24.7052 67.0671 28.6039 67.2419C31.3992 67.4064 34.1508 67.9119 36.8565 68.5544C46.4997 70.7214 53.7452 76.439 59.8329 84.0343C61.2114 85.7571 62.4593 87.6469 63.7538 89.4105C63.7981 89.5014 63.7053 89.5465 63.6215 89.5873C63.4004 89.364 63.0529 89.0985 62.7071 88.8322C58.9372 85.5575 55.08 82.3165 50.645 79.9057C48.3802 78.6141 46.0757 77.4544 43.7291 76.421C41.6351 75.4808 39.5891 74.6211 37.5403 73.7737C36.9737 73.5023 36.4097 73.2362 35.9282 73.1395C32.267 72.0927 28.6447 71.1394 25.0261 70.1755C23.5424 69.8098 21.8839 69.5291 20.2679 69.3402C21.8762 69.749 23.5385 70.2462 25.2413 70.6179C27.3727 71.2089 29.6004 71.7619 31.7833 72.4405C33.6541 72.9399 35.4445 73.4873 37.2317 74.2458C39.4933 75.1044 41.5864 76.0427 43.8085 77.033C46.0721 78.109 48.2907 79.0922 50.4238 80.3441C54.598 82.6634 58.3233 85.6377 61.9217 88.7774L62.0935 89.1306C60.7912 88.24 59.4472 87.2681 58.1449 86.3774C54.3629 83.9711 50.4945 81.8317 46.3146 79.9497C41.957 77.9337 37.6508 76.0006 32.937 74.5946C29.5374 73.6366 26.0477 72.7247 22.4662 71.8552C19.7196 71.1289 17.0139 70.4863 14.2252 69.8863C11.3842 69.1971 8.50188 68.6405 5.57873 68C4.31245 67.6322 3.04961 67.2715 1.69764 66.9454C1.78327 66.9038 1.74251 66.8199 1.74251 66.8199ZM99.5237 2.8265C99.6517 2.87669 99.7445 2.83158 99.7862 2.91718C99.6431 3.75217 99.5054 4.57569 99.2786 5.45144C98.8578 7.50227 98.4451 9.55584 97.9827 11.5211C97.6191 13.2221 97.2014 14.8347 96.7051 16.4944C95.891 19.0652 95.0725 21.6404 94.0412 24.2044C92.9557 27.3418 91.6104 30.3894 90.3489 33.3962L87.9247 39.1457C86.9836 41.2379 85.9992 43.2409 85.1484 45.2826C84.2074 47.3747 83.1728 49.5058 82.2734 51.6836C80.7069 55.1696 79.3137 58.7809 78.1768 62.4926C75.4066 71.5579 74.3012 80.9118 75.0757 90.3263C75.4601 94.9257 75.9764 99.5647 76.496 104.211C76.4981 104.428 76.4904 104.648 76.4014 104.91C76.2713 104.642 76.1446 104.382 76.0647 103.986C74.3591 95.3466 72.6216 86.6189 70.9662 77.8513C70.1395 73.467 70.408 69.0992 70.9336 64.5975C71.6993 58.5674 73.3418 52.7659 75.5895 47.1023C76.76 44.1397 78.1912 41.2687 79.7931 38.5308C82.6459 33.6625 85.7217 29.0166 88.6992 24.1913C89.9962 22.151 91.1112 19.972 92.4011 17.9351C92.4478 17.7999 92.5385 17.5374 92.4526 17.3608L89.9142 21.538C87.8198 24.6191 85.684 27.8328 83.6003 30.9176C81.1083 34.7413 78.7014 38.7398 76.8194 42.9197C74.9813 46.7452 73.4507 50.7542 72.4008 54.8581C71.482 58.5694 70.695 62.3204 70.2658 66.1223C70.1106 67.8256 70.0068 69.6164 69.8958 71.4107C69.855 71.3269 69.7712 71.3677 69.7712 71.3677C69.5587 70.2689 69.3135 69.0846 69.1955 67.9487C68.4151 63.211 68.0738 58.487 68.7393 53.593C69.2562 49.9668 70.3447 46.3912 71.8309 42.9531C75.8223 33.5011 82.039 25.4723 88.8576 17.8059C92.3998 13.9058 95.5954 9.74206 98.182 5.21944C98.673 4.44239 99.1615 3.65555 99.5237 2.8265ZM100.646 0C99.667 1.5657 98.9047 3.12758 97.9753 4.56338C95.297 9.12848 92.149 13.1588 88.6058 17.0571C81.6061 24.8138 75.3499 32.9743 71.1725 42.7241C70.0019 45.6867 68.9693 48.6969 68.3211 51.8399C67.4835 56.1625 67.4366 60.5372 68.0426 64.9164C68.5786 68.4671 69.1023 72.015 69.8132 75.4808C71.3827 84.0718 73.127 92.5778 74.7794 101.131C74.8614 101.744 74.9875 102.221 75.0695 102.834L74.8929 102.919C74.5903 102.528 74.4185 102.175 74.1619 101.866C72.5681 99.4822 71.0616 97.0653 69.0299 94.8927C67.5605 93.2142 66.136 91.4103 64.8432 89.6459C62.9465 87.3063 61.311 84.8373 59.4089 82.5003C53.5779 75.4329 46.5963 70.2399 37.4734 68.036C35.0301 67.4842 32.4533 66.8936 29.8763 66.7289C26.1594 66.4745 22.4836 66.5221 18.8129 66.349C13.6475 66.25 8.57564 66.1077 3.45815 66.089C2.58267 66.0804 1.61622 66.1159 0.702969 66.2381C0.563891 66.2198 0.404979 66.2287 0.274777 66.292C0.0714242 66.3909 -0.0668583 66.6236 0.0334715 67.102L1.20884 67.514C3.30848 68.0169 5.39827 68.5223 7.40517 69.0702C8.36653 69.2555 9.2414 69.4806 10.201 69.6667C12.031 70.0824 13.9519 70.4538 15.7891 70.866C17.8347 71.2804 19.8424 71.8257 21.8077 72.288C24.9077 73.0609 28.0022 73.8451 31.0103 74.6604C35.7241 76.0665 40.3005 77.8703 44.7819 79.9277C48.3969 81.5462 52.0034 83.3784 55.3928 85.4265C63.4767 90.4143 70.4142 96.3964 75.1354 104.76C75.4773 105.463 75.82 106.167 76.0709 106.915C76.711 108.893 77.2151 110.822 77.9356 112.753C79.7238 117.322 81.9915 121.771 84.3076 126.083C86.1084 129.341 87.9517 132.682 89.846 135.896C90.0612 136.338 90.4087 136.604 90.7051 137L90.9727 136.87C90.846 136.609 90.844 136.392 90.7589 136.217C88.6996 132.433 86.733 128.603 84.7162 124.901C83.2543 122.131 81.8456 119.449 80.3855 116.678C79.2284 114.517 78.5136 112.149 78.0538 109.649C76.7779 102.768 76.0196 95.8446 75.6588 88.8405C75.1449 79.5176 76.256 70.3881 79.2383 61.5417C80.3679 58.2681 81.6291 55.0431 82.9336 51.9116C83.7403 49.779 84.7246 47.776 85.6648 45.6821L88.4912 39.4171C89.3407 37.5856 90.2403 35.6261 90.9163 33.6694C92.3102 30.4857 93.6138 27.3525 94.7831 24.1744C96.3601 19.8119 97.8559 15.5001 98.734 11.0431C99.2906 8.16074 99.8924 5.37116 100.447 2.4897C100.583 1.6582 100.593 0.784519 100.646 0Z" fill="#8EA8CA"/>
</svg>
